<?xml version="1.0"?>
<svg version="1.1" xmlns="http://www.w3.org/2000/svg" width="400px" height="200px" style="border: dashed 2px #aaa"><path fill="#ebf1f5" d="M46.2587890625,124.97314453125q0-0.1552734375,0.375244140625-0.828125t0.95751953125-1.617431640625t1.26806640625-2.057373046875t1.37158203125-2.19970703125t1.281005859375-1.966796875t0.90576171875-1.345703125q-0.310546875-0.59521484375-1.06103515625-1.63037109375t-1.539794921875-2.09619140625t-1.37158203125-2.04443359375t-0.582275390625-1.44921875q0-0.75048828125,0.737548828125-0.9833984375t1.436279296875-0.23291015625q0.75048828125,0,1.06103515625,0.12939453125t0.828125,0.724609375q-0.0517578125,0.1552734375,0.375244140625,0.815185546875t1.00927734375,1.3974609375t1.11279296875,1.345703125t0.634033203125,0.789306640625l1.138671875-1.138671875t1.410400390625-1.306884765625t1.539794921875-1.06103515625t1.47509765625-0.427001953125q0.2587890625,0,0.789306640625,0.12939453125t0.530517578125,0.517578125q-0.75048828125,0.80224609375-1.37158203125,1.31982421875t-1.26806640625,1.048095703125t-1.2939453125,1.1904296875t-1.5009765625,1.669189453125q0.3623046875,0.59521484375,1.37158203125,1.966796875t2.04443359375,2.911376953125t1.824462890625,2.8984375t0.789306640625,1.876220703125q0,0.310546875-0.323486328125,0.504638671875t-0.737548828125,0.323486328125t-0.841064453125,0.18115234375t-0.634033203125,0.0517578125q-0.59521484375,0-1.358642578125-0.1552734375t-1.099853515625-0.69873046875q-1.00927734375-1.47509765625-1.746826171875-3.092529296875t-1.798583984375-3.092529296875q-0.20703125,0.3623046875-0.841064453125,1.7080078125t-1.513916015625,2.833740234375t-1.850341796875,2.652587890625t-1.772705078125,1.16455078125l-0.0517578125,0q-0.3623046875,0-1.03515625-0.12939453125t-0.6728515625-0.59521484375z M66.513432617188,107.47900390625q0-1.21630859375,0.478759765625-1.798583984375t1.746826171875-0.582275390625q0.75048828125,0,1.410400390625,0.310546875t0.659912109375,1.31982421875q0.103515625,1.47509765625,0.103515625,3.092529296875t0.28466796875,3.066650390625q0.64697265625-1.06103515625,1.462158203125-2.1220703125t1.798583984375-1.88916015625t2.14794921875-1.332763671875t2.5361328125-0.504638671875q1.86328125,0,3.1572265625,0.7763671875t2.135009765625,2.0185546875t1.21630859375,2.807861328125t0.375244140625,3.144287109375q0,2.4326171875-0.737548828125,3.972412109375t-1.953857421875,2.419677734375t-2.756103515625,1.1904296875t-3.092529296875,0.310546875q-1.37158203125,0-2.56201171875-0.530517578125t-1.65625-2.005615234375q0-0.4140625,0.608154296875-0.517578125t0.866943359375-0.103515625q0.85400390625,0,1.26806640625,0.4658203125q0.310546875,0.3623046875,0.685791015625,0.737548828125t0.789306640625,0.375244140625q0.80224609375,0,1.68212890625-0.452880859375t1.617431640625-1.1904296875t1.2421875-1.746826171875t0.504638671875-2.0703125q0-0.90576171875-0.1552734375-2.25146484375t-0.530517578125-2.587890625t-1.03515625-2.14794921875t-1.669189453125-0.90576171875q-1.52685546875,0-2.756103515625,1.3974609375t-2.04443359375,3.3642578125t-1.26806640625,4.0888671875t-0.452880859375,3.54541015625t0.18115234375,3.59716796875t0.375244140625,4.515869140625t0.375244140625,4.515869140625t0.18115234375,3.59716796875q0,0.3623046875-0.297607421875,0.582275390625t-0.711669921875,0.349365234375t-0.841064453125,0.1552734375t-0.634033203125,0.02587890625q-0.69873046875,0-1.462158203125-0.1552734375t-1.048095703125-0.95751953125q-0.3623046875-1.26806640625-0.6728515625-3.610107421875t-0.556396484375-5.17578125t-0.427001953125-5.9521484375t-0.310546875-6.016845703125t-0.194091796875-5.30517578125t-0.064697265625-3.830078125z M91.322763671875,109.60107421875q0-1.06103515625,0.375244140625-1.78564453125t1.591552734375-0.724609375q0.4658203125,0,1.16455078125,0.142333984375t0.80224609375,0.711669921875q0.2587890625,1.52685546875,0.28466796875,3.3125t0.18115234375,3.3642578125q0.59521484375-1.16455078125,1.52685546875-2.51025390625t2.1220703125-2.484375t2.587890625-1.88916015625t2.8466796875-0.75048828125q0.103515625,0,0.38818359375,0.07763671875t0.530517578125,0.219970703125t0.297607421875,0.323486328125t-0.28466796875,0.33642578125q-0.103515625,0.310546875-0.43994140625,0.375244140625t-0.59521484375,0.064697265625q-0.1552734375,0-0.49169921875-0.12939453125q-1.9150390625,1.00927734375-3.2607421875,2.7431640625t-2.19970703125,3.843017578125t-1.2421875,4.451171875t-0.38818359375,4.567626953125q0,1.11279296875-0.504638671875,1.345703125t-1.617431640625,0.23291015625q-0.59521484375,0-1.255126953125-0.12939453125t-0.918701171875-0.828125q-0.4658203125-1.47509765625-0.763427734375-3.39013671875t-0.452880859375-3.946533203125t-0.219970703125-3.998291015625t-0.064697265625-3.54541015625z M109.71412597656,116.84716796875q0-1.759765625,0.478759765625-3.39013671875t1.436279296875-2.911376953125t2.393798828125-2.04443359375t3.325439453125-0.763427734375q1.16455078125,0,2.574951171875,0.349365234375t2.652587890625,1.03515625t2.0703125,1.746826171875t0.828125,2.4326171875q0,0.64697265625-0.219970703125,0.9833984375t-0.892822265625,0.33642578125l-0.28466796875-0.0517578125q0.75048828125,2.0185546875,1.2939453125,4.140625t1.06103515625,4.244140625q0.20703125,0.4140625,0.310546875,0.737548828125t0.103515625,0.634033203125q0,0.4140625-0.23291015625,0.685791015625t-0.608154296875,0.401123046875t-0.7763671875,0.18115234375t-0.711669921875,0.0517578125q-1.11279296875,0-1.669189453125-0.38818359375t-0.80224609375-1.06103515625t-0.297607421875-1.513916015625t-0.20703125-1.695068359375q-0.310546875,1.00927734375-0.815185546875,1.966796875t-1.1904296875,1.720947265625t-1.617431640625,1.21630859375t-2.09619140625,0.452880859375q-1.7080078125,0-2.87255859375-0.9833984375t-1.876220703125-2.419677734375t-1.03515625-3.066650390625t-0.323486328125-3.02783203125z M113.38893066406,116.48486328125q0,0.95751953125,0.12939453125,2.0185546875t0.427001953125,2.09619140625t0.763427734375,1.953857421875t1.16455078125,1.617431640625q1.26806640625-1.37158203125,1.876220703125-3.33837890625t1.0869140625-3.791259765625t1.0869140625-3.13134765625t1.876220703125-1.306884765625q0.80224609375,0,1.345703125,0.28466796875q-0.2587890625-0.64697265625-0.85400390625-1.255126953125t-1.332763671875-1.11279296875t-1.52685546875-0.828125t-1.488037109375-0.323486328125q-0.20703125,0-0.478759765625,0.064697265625t-0.427001953125,0.012939453125q-1.06103515625,0.310546875-1.746826171875,1.073974609375t-1.11279296875,1.798583984375t-0.608154296875,2.1220703125t-0.18115234375,2.04443359375z M132.14259765625,110.17041015625q0-1.06103515625,0.62109375-1.824462890625t1.513916015625-1.2421875t1.953857421875-0.711669921875t1.966796875-0.23291015625q0.69873046875,0,1.86328125,0.20703125t2.27734375,0.62109375t1.927978515625,1.0869140625t0.815185546875,1.57861328125q0,0.4140625-0.310546875,0.737548828125t-0.64697265625,0.323486328125q-0.69873046875,0-1.26806640625-0.452880859375t-1.177490234375-0.95751953125t-1.332763671875-0.95751953125t-1.63037109375-0.452880859375t-1.643310546875,0.582275390625t-0.737548828125,1.539794921875q0,1.57861328125,1.11279296875,3.092529296875t2.445556640625,3.18310546875t2.445556640625,3.506591796875t1.11279296875,4.06298828125q0,0.95751953125-0.401123046875,1.617431640625t-1.06103515625,1.073974609375t-1.488037109375,0.634033203125t-1.6044921875,0.219970703125q-0.85400390625,0-1.99267578125-0.401123046875t-2.14794921875-1.06103515625t-1.695068359375-1.539794921875t-0.685791015625-1.83740234375q0-0.4658203125,0.659912109375-0.59521484375t0.970458984375-0.12939453125q0.1552734375,0,0.478759765625,0.103515625t0.634033203125,0.23291015625t0.556396484375,0.28466796875t0.194091796875,0.33642578125q0.2587890625,0.310546875,0.789306640625,0.918701171875t1.06103515625,0.9833984375t0.931640625,0.271728515625t0.401123046875-1.16455078125q0-2.0185546875-1.0869140625-3.713623046875t-2.367919921875-3.3125t-2.367919921875-3.208984375t-1.0869140625-3.403076171875z M150.37868652344,117.908203125q0-1.8115234375,0.401123046875-4.27001953125t1.358642578125-4.658203125t2.523193359375-3.739501953125t3.946533203125-1.539794921875q2.2255859375,0,3.33837890625,1.281005859375t1.11279296875,3.454833984375q0,1.42333984375-0.530517578125,3.118408203125t-1.513916015625,3.208984375t-2.3291015625,2.523193359375t-3.001953125,1.00927734375l-0.6728515625-0.0517578125q0,0.69873046875,0.20703125,1.876220703125t0.608154296875,2.342041015625t1.03515625,2.04443359375t1.539794921875,0.8798828125q1.31982421875,0,2.5361328125-1.06103515625t2.30322265625-2.35498046875t2.0185546875-2.35498046875t1.7080078125-1.06103515625q0.4140625,0,0.85400390625,0.12939453125t0.49169921875,0.724609375q0,0.3623046875-0.194091796875,0.59521484375t-0.349365234375,0.517578125q-0.80224609375,1.37158203125-1.746826171875,2.61376953125t-2.135009765625,2.25146484375t-2.600830078125,1.591552734375t-3.118408203125,0.582275390625q-2.2255859375,0-3.70068359375-0.789306640625t-2.380859375-2.1220703125t-1.306884765625-3.07958984375t-0.401123046875-3.661865234375z M155.01101074219,115.94140625l0.724609375,0.64697265625q0.517578125,0.4658203125,1.03515625,0.20703125t0.931640625-0.944580078125t0.763427734375-1.695068359375t0.62109375-2.0703125t0.401123046875-2.0703125t0.12939453125-1.68212890625l0-0.8798828125t-0.07763671875-0.931640625t-0.271728515625-0.737548828125t-0.608154296875-0.375244140625q-0.12939453125-0.02587890625-0.23291015625-0.02587890625q-0.8798828125,0-1.5009765625,1.11279296875q-0.6728515625,1.2421875-1.0869140625,3.014892578125t-0.59521484375,3.635986328125t-0.23291015625,2.794921875z M170.94387695313,100.4140625q0-0.3623046875,0.7763671875-0.62109375t1.759765625-0.427001953125t1.902099609375-0.245849609375t1.255126953125-0.12939453125q0-0.69873046875,0.0517578125-1.410400390625t0.28466796875-1.26806640625t0.737548828125-0.892822265625t1.410400390625-0.33642578125q0.75048828125,0,1.138671875,0.18115234375t0.828125,0.75048828125q0.103515625,0.310546875,0.103515625,0.59521484375l0,0.866943359375t-0.0517578125,0.892822265625q0.95751953125-0.103515625,1.902099609375-0.245849609375t1.902099609375-0.142333984375q0.69873046875,0,0.95751953125,0.02587890625t0.517578125,0.62109375q0.20703125,0.59521484375-0.504638671875,0.90576171875t-1.7080078125,0.4658203125t-1.979736328125,0.23291015625t-1.1904296875,0.07763671875q-0.310546875,4.451171875-0.634033203125,8.82470703125t-0.323486328125,8.87646484375q0,2.0185546875,0.12939453125,4.16650390625t0.724609375,4.06298828125q0.1552734375,0.59521484375,0.517578125,1.11279296875t0.3623046875,1.11279296875q0,0.3623046875-0.28466796875,0.5693359375t-0.685791015625,0.349365234375t-0.80224609375,0.168212890625t-0.659912109375,0.02587890625q-1.63037109375,0-2.484375-1.21630859375t-1.229248046875-2.911376953125t-0.401123046875-3.480712890625t-0.02587890625-2.8984375q0-2.27734375,0.090576171875-4.658203125t0.219970703125-4.7099609375t0.3623046875-4.5546875t0.54345703125-4.140625q-0.90576171875,0.103515625-1.772705078125,0.23291015625t-1.772705078125,0.12939453125q-0.20703125,0-0.556396484375-0.02587890625t-0.659912109375-0.12939453125t-0.530517578125-0.28466796875t-0.219970703125-0.517578125z M190.73270019531,116.22607421875q0-2.380859375,0.556396484375-4.671142578125t0.944580078125-4.567626953125q0.103515625-0.59521484375,0.815185546875-0.737548828125t1.203369140625-0.142333984375q0.85400390625,0,1.37158203125,0.2587890625q0.20703125,0.103515625,0.38818359375,0.23291015625t0.18115234375,0.33642578125q0,2.2255859375-0.530517578125,4.34765625t-0.530517578125,4.5029296875q0,0.80224609375,0.116455078125,1.513916015625t0.219970703125,1.410400390625l0.1552734375,0.75048828125q0,0.20703125,0.02587890625,0.3623046875t0.07763671875,0.3623046875q0,0.4658203125-0.659912109375,0.634033203125t-1.151611328125,0.168212890625q-0.75048828125,0-1.384521484375-0.297607421875t-0.996337890625-1.022216796875l-0.3623046875-0.75048828125q-0.310546875-0.59521484375-0.310546875-1.332763671875t-0.12939453125-1.358642578125z M192.38895019531,100.64697265625l0-0.49169921875q0-1.21630859375,0.608154296875-2.173828125t1.824462890625-0.95751953125q0.1552734375,0,0.297607421875,0.02587890625t0.297607421875,0.02587890625q0.310546875,0.0517578125,0.815185546875,0.245849609375t0.504638671875,0.608154296875l0,0.0517578125q-0.103515625,0.20703125-0.12939453125,0.427001953125t-0.12939453125,0.375244140625l0.0517578125-0.0517578125q-0.310546875,0.80224609375-0.504638671875,1.2939453125t-0.427001953125,0.789306640625t-0.582275390625,0.427001953125t-0.996337890625,0.12939453125q-0.103515625,0-0.3623046875-0.02587890625t-0.556396484375-0.103515625t-0.504638671875-0.20703125t-0.20703125-0.38818359375z M201.5156640625,117.3388671875q0-1.47509765625,0.375244140625-3.040771484375t1.1904296875-2.82080078125t2.057373046875-2.04443359375t3.001953125-0.789306640625q1.31982421875,0,2.781982421875,0.452880859375t2.678466796875,1.2939453125t1.979736328125,2.057373046875t0.763427734375,2.71728515625q0,1.8115234375-0.659912109375,3.44189453125t-1.850341796875,2.911376953125t-2.781982421875,2.0185546875t-3.454833984375,0.737548828125q-1.52685546875,0-2.66552734375-0.556396484375t-1.902099609375-1.488037109375t-1.138671875-2.19970703125t-0.375244140625-2.69140625z M205.31986328125,117.287109375q0,0.4658203125,0.142333984375,1.37158203125t0.427001953125,1.772705078125t0.737548828125,1.5009765625t1.099853515625,0.582275390625q1.37158203125-0.1552734375,2.264404296875-0.892822265625t1.44921875-1.798583984375t0.7763671875-2.30322265625t0.219970703125-2.35498046875q0-1.42333984375-0.556396484375-2.380859375t-1.824462890625-1.552734375q0,0.0517578125,0.0517578125,0.0517578125t0.0517578125-0.0517578125l-0.64697265625-0.1552734375q-0.2587890625-0.103515625-0.634033203125-0.23291015625t-0.737548828125-0.5693359375q-1.00927734375,0.3623046875-1.565673828125,0.931640625t-0.841064453125,1.384521484375t-0.349365234375,1.953857421875t-0.064697265625,2.7431640625z M222.18437011719,113.767578125q0-0.517578125,1.410400390625-0.7763671875t3.3125-0.375244140625t3.946533203125-0.090576171875t3.3125,0.02587890625q0.64697265625,0,1.513916015625,0.245849609375t0.866943359375,0.815185546875q0,0.4658203125-0.4140625,0.685791015625t-0.970458984375,0.323486328125t-1.0869140625,0.103515625l-0.685791015625,0q-1.8115234375,0-3.403076171875-0.07763671875t-3.299560546875-0.07763671875q-0.517578125,0-1.048095703125,0.0517578125t-0.996337890625,0.0517578125l-0.737548828125,0t-0.80224609375-0.07763671875t-0.64697265625-0.2587890625t-0.271728515625-0.5693359375z M242.95659179688,113.1982421875l0-4.0888671875q0-4.244140625,0.142333984375-8.423583984375t0.245849609375-8.423583984375q0-0.80224609375-0.0517578125-1.78564453125q-0.02587890625-0.28466796875-0.02587890625-0.54345703125q0-0.64697265625,0.103515625-1.26806640625q0.12939453125-0.828125,0.634033203125-1.42333984375t1.669189453125-0.59521484375q0.95751953125,0,1.462158203125,0.20703125t0.711669921875,0.608154296875t0.23291015625,1.00927734375t0.02587890625,1.410400390625q0,4.2958984375-0.103515625,8.61767578125q-0.07763671875,2.87255859375-0.07763671875,5.7451171875q0,1.44921875,0.02587890625,2.8984375q0.0517578125,4.2958984375,0.401123046875,8.591796875t1.177490234375,8.48828125q2.587890625-0.103515625,5.17578125-0.2587890625t5.17578125-0.1552734375q0.2587890625,0,0.737548828125,0.0517578125t0.95751953125,0.18115234375t0.815185546875,0.33642578125t0.33642578125,0.59521484375q0,0.2587890625-0.23291015625,0.43994140625t-0.43994140625,0.28466796875l-0.0517578125,0q-0.4140625,0.20703125-1.643310546875,0.401123046875t-2.794921875,0.297607421875t-3.28662109375,0.18115234375t-3.23486328125,0.12939453125t-2.626708984375,0.07763671875t-1.37158203125,0.02587890625l-0.23291015625,0q-0.62109375,0-1.3974609375-0.20703125q-0.931640625-0.2587890625-1.16455078125-1.00927734375q-0.4658203125-1.9150390625-0.737548828125-3.972412109375t-0.4140625-4.179443359375t-0.142333984375-4.244140625z M266.49785644531,122.3076171875q-0.02587890625-0.7763671875-0.02587890625-1.552734375q0-2.4326171875,0.2587890625-4.89111328125q0.310546875-3.2607421875,0.4140625-6.41796875q0.103515625-3.70068359375,0.310546875-7.68603515625q0.12939453125-2.173828125,0.12939453125-4.2958984375q0-1.73388671875-0.07763671875-3.44189453125q0.2587890625-0.59521484375,0.685791015625-0.80224609375t1.073974609375-0.20703125q0.310546875,0,0.659912109375,0.0517578125t0.608154296875,0.2587890625q0.3623046875,0.0517578125,0.892822265625,0.103515625t0.815185546875,0.310546875q0.103515625,0.1552734375,0.530517578125,1.06103515625t1.00927734375,2.19970703125t1.21630859375,2.807861328125t1.21630859375,2.87255859375t1.00927734375,2.393798828125t0.530517578125,1.2939453125q2.4326171875-4.3994140625,4.76171875-9.044677734375t5.09814453125-8.760009765625q0.2587890625-0.3623046875,0.892822265625-0.530517578125t1.048095703125-0.168212890625q1.11279296875,0,1.617431640625,0.530517578125t0.659912109375,1.358642578125q0.103515625,0.517578125,0.12939453125,1.11279296875q0.02587890625,0.310546875-0.02587890625,0.64697265625q-0.103515625,0.95751953125-0.103515625,1.8115234375q0,6.02978515625-0.4140625,11.968994140625t-0.75048828125,11.994873046875q-0.0517578125,1.2421875-0.0517578125,2.587890625t0.0517578125,2.794921875q0.02587890625,0.517578125,0.02587890625,1.00927734375q0,2.27734375-0.38818359375,4.244140625q-0.3623046875,0.59521484375-1.1904296875,0.75048828125t-1.3974609375,0.1552734375q-1.21630859375,0-2.3291015625-0.5693359375l-0.28466796875-0.33642578125l-0.103515625-0.4140625t-0.0517578125-0.4140625q0-3.75244140625,0.271728515625-7.556640625t0.608154296875-7.595458984375t0.711669921875-7.569580078125t0.634033203125-7.556640625q-1.52685546875,2.5361328125-2.963134765625,5.162841796875t-2.704345703125,5.343994140625q-0.4658203125,1.06103515625-0.892822265625,2.27734375t-1.022216796875,2.173828125q-0.310546875,0.4658203125-1.048095703125,0.5693359375t-1.281005859375,0.103515625q-0.517578125,0-1.073974609375-0.18115234375t-0.763427734375-0.7763671875q-0.95751953125-2.92431640625-2.04443359375-5.71923828125t-2.19970703125-5.66748046875q0,1.9150390625,0.07763671875,4.955810546875t0.07763671875,6.301513671875t-0.103515625,6.23681640625t-0.49169921875,4.7099609375q-0.103515625,0.64697265625-0.841064453125,0.80224609375t-1.281005859375,0.1552734375q-0.4140625,0-0.789306640625-0.0517578125t-0.737548828125-0.20703125z M297.23345703125,121.5830078125q0-0.90576171875,0.62109375-1.151611328125t1.345703125-0.245849609375q1.26806640625,0,2.14794921875,1.138671875t1.669189453125,2.497314453125t1.565673828125,2.497314453125t1.83740234375,1.138671875q0.80224609375,0,1.462158203125-0.401123046875t1.138671875-1.00927734375t0.737548828125-1.37158203125t0.2587890625-1.513916015625q0-1.966796875-0.789306640625-4.06298828125t-2.0185546875-4.32177734375t-2.600830078125-4.5546875t-2.587890625-4.73583984375t-2.0185546875-4.904052734375t-0.80224609375-5.033447265625q0-3.80419921875,2.27734375-5.900390625t6.00390625-2.09619140625q1.26806640625,0,2.56201171875,0.3623046875t2.380859375,1.0869140625t1.772705078125,1.78564453125t0.685791015625,2.484375q0,0.4658203125-0.685791015625,0.608154296875t-0.996337890625,0.142333984375q-0.4658203125,0-1.00927734375-0.116455078125t-0.69873046875-0.634033203125t-0.43994140625-1.1904296875t-0.711669921875-1.255126953125t-1.00927734375-1.00927734375t-1.281005859375-0.427001953125q-1.16455078125,0-1.979736328125,0.478759765625t-1.31982421875,1.281005859375t-0.75048828125,1.798583984375t-0.245849609375,2.057373046875q0,2.484375,0.85400390625,5.007568359375t2.1220703125,5.0205078125t2.756103515625,4.929931640625t2.756103515625,4.73583984375t2.1220703125,4.5029296875t0.85400390625,4.16650390625q0,1.759765625-0.828125,2.97607421875t-2.09619140625,1.979736328125t-2.807861328125,1.11279296875t-3.014892578125,0.349365234375q-1.57861328125,0-3.23486328125-0.634033203125t-2.97607421875-1.746826171875t-2.173828125-2.600830078125t-0.85400390625-3.221923828125z"/><path fill="#" d=""/></svg>
